HIERARCHY
ROOT Hips
{
	OFFSET 0.000000 83.214638 0.000000
	CHANNELS 6 Xposition Yposition Zposition Xrotation Yrotation Zrotation
	JOINT Pelvis
	{
		OFFSET 0.000000 0.000000 0.000000
		CHANNELS 3 Xrotation Yrotation Zrotation
		JOINT LeftUpLeg
		{
			OFFSET 8.479700 -4.795502 -0.379100
			CHANNELS 3 Xrotation Yrotation Zrotation
			JOINT LeftLeg
			{
				OFFSET 0.024144 -32.555107 0.112900
				CHANNELS 3 Xrotation Yrotation Zrotation
				JOINT LeftFoot
				{
					OFFSET -0.024144 -32.638630 -3.012600
					CHANNELS 3 Xrotation Yrotation Zrotation
					JOINT LeftToeBase
					{
						OFFSET 0.970200 -13.225400 11.864200
						CHANNELS 3 Xrotation Yrotation Zrotation
						End Site
						{
							OFFSET 0.000000 12.319262 0.000000
						}
					}
					JOINT LFootTongue
					{
						OFFSET 1.142400 -1.059800 6.665200
						CHANNELS 3 Xrotation Yrotation Zrotation
						End Site
						{
							OFFSET 0.000000 12.319262 0.000000
						}
					}
				}
				JOINT LeftPantLeg
				{
					OFFSET 0.918482 -16.533964 -2.284700
					CHANNELS 3 Xrotation Yrotation Zrotation
					End Site
					{
						OFFSET 0.350399 24.744368 0.000000
					}
				}
			}
		}
		JOINT RightUpLeg
		{
			OFFSET -8.479700 -4.795502 -0.379100
			CHANNELS 3 Xrotation Yrotation Zrotation
			JOINT RightLeg
			{
				OFFSET -0.023144 -32.555092 0.112900
				CHANNELS 3 Xrotation Yrotation Zrotation
				JOINT RightFoot
				{
					OFFSET 0.023144 -32.638641 -3.012700
					CHANNELS 3 Xrotation Yrotation Zrotation
					JOINT RightToeBase
					{
						OFFSET -0.970200 -13.225400 11.864200
						CHANNELS 3 Xrotation Yrotation Zrotation
						End Site
						{
							OFFSET 0.000000 12.319244 0.000000
						}
					}
					JOINT RFootTongue
					{
						OFFSET -1.142200 -1.059800 6.665200
						CHANNELS 3 Xrotation Yrotation Zrotation
						End Site
						{
							OFFSET 0.000000 12.319243 0.000000
						}
					}
				}
				JOINT RightPantLeg
				{
					OFFSET -0.919482 -16.533978 -2.284800
					CHANNELS 3 Xrotation Yrotation Zrotation
					End Site
					{
						OFFSET -0.350400 24.744419 0.000000
					}
				}
			}
		}
	}
	JOINT Spine
	{
		OFFSET 0.000000 7.722000 1.166200
		CHANNELS 3 Xrotation Yrotation Zrotation
		JOINT Spine1
		{
			OFFSET 0.000000 12.024101 0.248800
			CHANNELS 3 Xrotation Yrotation Zrotation
			JOINT Spine2
			{
				OFFSET 0.000000 11.502998 -0.491200
				CHANNELS 3 Xrotation Yrotation Zrotation
				JOINT Neck
				{
					OFFSET 0.000000 18.430702 -3.123100
					CHANNELS 3 Xrotation Yrotation Zrotation
					JOINT Head
					{
						OFFSET 0.000000 9.051102 1.034000
						CHANNELS 3 Xrotation Yrotation Zrotation
						JOINT HairB
						{
							OFFSET 0.208400 24.786102 24.822300
							CHANNELS 3 Xrotation Yrotation Zrotation
							End Site
							{
								OFFSET 0.000000 32.263779 0.000000
							}
						}
						JOINT HairA
						{
							OFFSET -7.081100 24.428299 23.196600
							CHANNELS 3 Xrotation Yrotation Zrotation
							End Site
							{
								OFFSET 0.000000 32.263779 0.000000
							}
						}
						JOINT Hat
						{
							OFFSET 16.728800 15.048294 -15.439601
							CHANNELS 3 Xrotation Yrotation Zrotation
							End Site
							{
								OFFSET 0.000000 32.263779 0.000000
							}
						}
					}
				}
				JOINT LeftShoulder
				{
					OFFSET 6.197800 13.665199 -4.064700
					CHANNELS 3 Xrotation Yrotation Zrotation
					JOINT LeftArm
					{
						OFFSET 7.778100 -0.187103 -1.709300
						CHANNELS 3 Xrotation Yrotation Zrotation
						JOINT LeftForeArm
						{
							OFFSET 22.049376 0.000000 0.000000
							CHANNELS 3 Xrotation Yrotation Zrotation
							JOINT LeftHand
							{
								OFFSET 23.009392 0.000000 0.000000
								CHANNELS 3 Xrotation Yrotation Zrotation
								JOINT LeftHandThumb1
								{
									OFFSET 3.507191 -2.063065 3.133727
									CHANNELS 3 Xrotation Yrotation Zrotation
									JOINT LeftHandThumb2
									{
										OFFSET 3.101337 -1.790558 1.790558
										CHANNELS 3 Xrotation Yrotation Zrotation
										JOINT LeftHandThumb3
										{
											OFFSET 3.058640 -1.765907 1.765906
											CHANNELS 3 Xrotation Yrotation Zrotation
											End Site
											{
												OFFSET -0.415260 3.926476 -0.049563
											}
										}
									}
								}
								JOINT LeftHandIndex1
								{
									OFFSET 11.334419 -0.901459 3.706815
									CHANNELS 3 Xrotation Yrotation Zrotation
									JOINT LeftHandIndex2
									{
										OFFSET 3.283112 0.000000 0.000000
										CHANNELS 3 Xrotation Yrotation Zrotation
										JOINT LeftHandIndex3
										{
											OFFSET 3.323853 0.000000 0.000000
											CHANNELS 3 Xrotation Yrotation Zrotation
											End Site
											{
												OFFSET -1.135597 3.097809 0.402452
											}
										}
									}
								}
								JOINT LeftHandMiddle1
								{
									OFFSET 11.335861 0.000000 0.000000
									CHANNELS 3 Xrotation Yrotation Zrotation
									JOINT LeftHandMiddle2
									{
										OFFSET 3.410492 0.000000 0.000000
										CHANNELS 3 Xrotation Yrotation Zrotation
										JOINT LeftHandMiddle3
										{
											OFFSET 3.312172 0.000000 0.000000
											CHANNELS 3 Xrotation Yrotation Zrotation
											End Site
											{
												OFFSET -1.150200 3.080154 0.400270
											}
										}
									}
								}
								JOINT LeftHandRing1
								{
									OFFSET 11.514786 -0.013176 -3.003090
									CHANNELS 3 Xrotation Yrotation Zrotation
									JOINT LeftHandRing2
									{
										OFFSET 3.053307 0.000000 0.000000
										CHANNELS 3 Xrotation Yrotation Zrotation
										JOINT LeftHandRing3
										{
											OFFSET 3.295807 0.000000 0.000000
											CHANNELS 3 Xrotation Yrotation Zrotation
											End Site
											{
												OFFSET -1.281006 3.013344 0.375733
											}
										}
									}
								}
								JOINT LeftHandPinky1
								{
									OFFSET 10.518692 -0.960396 -5.730441
									CHANNELS 3 Xrotation Yrotation Zrotation
									JOINT LeftHandPinky2
									{
										OFFSET 2.861649 0.000000 0.000000
										CHANNELS 3 Xrotation Yrotation Zrotation
										JOINT LeftHandPinky3
										{
											OFFSET 2.863380 0.000000 0.000000
											CHANNELS 3 Xrotation Yrotation Zrotation
											End Site
											{
												OFFSET -0.843597 2.711159 0.369971
											}
										}
									}
								}
							}
							JOINT LSleeve
							{
								OFFSET 6.676277 -0.344902 -1.011730
								CHANNELS 3 Xrotation Yrotation Zrotation
								End Site
								{
									OFFSET 0.000000 14.885353 0.000000
								}
							}
						}
					}
				}
				JOINT RightShoulder
				{
					OFFSET -6.197800 13.665199 -4.064700
					CHANNELS 3 Xrotation Yrotation Zrotation
					JOINT RightArm
					{
						OFFSET -7.778100 -0.187103 -1.709300
						CHANNELS 3 Xrotation Yrotation Zrotation
						JOINT RightForeArm
						{
							OFFSET -22.049376 0.000000 0.000000
							CHANNELS 3 Xrotation Yrotation Zrotation
							JOINT RightHand
							{
								OFFSET -23.009392 0.000000 0.000000
								CHANNELS 3 Xrotation Yrotation Zrotation
								JOINT RightHandThumb1
								{
									OFFSET -3.507191 -2.063065 3.133727
									CHANNELS 3 Xrotation Yrotation Zrotation
									JOINT RightHandThumb2
									{
										OFFSET -3.101337 -1.790558 1.790558
										CHANNELS 3 Xrotation Yrotation Zrotation
										JOINT RightHandThumb3
										{
											OFFSET -3.058640 -1.765907 1.765906
											CHANNELS 3 Xrotation Yrotation Zrotation
											End Site
											{
												OFFSET 0.415260 3.926476 -0.049563
											}
										}
									}
								}
								JOINT RightHandIndex1
								{
									OFFSET -11.334419 -0.901459 3.706815
									CHANNELS 3 Xrotation Yrotation Zrotation
									JOINT RightHandIndex2
									{
										OFFSET -3.283112 0.000000 0.000000
										CHANNELS 3 Xrotation Yrotation Zrotation
										JOINT RightHandIndex3
										{
											OFFSET -3.323853 0.000000 0.000000
											CHANNELS 3 Xrotation Yrotation Zrotation
											End Site
											{
												OFFSET 1.135597 3.097809 0.402452
											}
										}
									}
								}
								JOINT RightHandMiddle1
								{
									OFFSET -11.335861 0.000000 0.000000
									CHANNELS 3 Xrotation Yrotation Zrotation
									JOINT RightHandMiddle2
									{
										OFFSET -3.410492 0.000000 0.000000
										CHANNELS 3 Xrotation Yrotation Zrotation
										JOINT RightHandMiddle3
										{
											OFFSET -3.312172 0.000000 0.000000
											CHANNELS 3 Xrotation Yrotation Zrotation
											End Site
											{
												OFFSET 1.150200 3.080154 0.400270
											}
										}
									}
								}
								JOINT RightHandRing1
								{
									OFFSET -11.514786 -0.013176 -3.003090
									CHANNELS 3 Xrotation Yrotation Zrotation
									JOINT RightHandRing2
									{
										OFFSET -3.053307 0.000000 0.000000
										CHANNELS 3 Xrotation Yrotation Zrotation
										JOINT RightHandRing3
										{
											OFFSET -3.295807 0.000000 0.000000
											CHANNELS 3 Xrotation Yrotation Zrotation
											End Site
											{
												OFFSET 1.281006 3.013344 0.375733
											}
										}
									}
								}
								JOINT RightHandPinky1
								{
									OFFSET -10.518692 -0.960396 -5.730441
									CHANNELS 3 Xrotation Yrotation Zrotation
									JOINT RightHandPinky2
									{
										OFFSET -2.861649 0.000000 0.000000
										CHANNELS 3 Xrotation Yrotation Zrotation
										JOINT RightHandPinky3
										{
											OFFSET -2.863380 0.000000 0.000000
											CHANNELS 3 Xrotation Yrotation Zrotation
											End Site
											{
												OFFSET 0.843597 2.711159 0.369971
											}
										}
									}
								}
							}
							JOINT RSleeve
							{
								OFFSET -6.676277 -0.344902 -1.011730
								CHANNELS 3 Xrotation Yrotation Zrotation
								End Site
								{
									OFFSET 0.000000 14.885353 0.000000
								}
							}
						}
					}
				}
				JOINT Backpack
				{
					OFFSET 0.000000 -2.471497 36.677502
					CHANNELS 3 Xrotation Yrotation Zrotation
					End Site
					{
						OFFSET 0.000000 20.427315 0.000000
					}
				}
				JOINT Hood
				{
					OFFSET 0.000000 18.754097 -10.431000
					CHANNELS 3 Xrotation Yrotation Zrotation
					JOINT Hood1
					{
						OFFSET 0.000000 -5.011002 -7.685901
						CHANNELS 3 Xrotation Yrotation Zrotation
						End Site
						{
							OFFSET 0.000000 9.175140 0.000000
						}
					}
				}
				JOINT LHoodieString
				{
					OFFSET 5.250500 16.397697 3.089900
					CHANNELS 3 Xrotation Yrotation Zrotation
					JOINT LHoodieString1
					{
						OFFSET 0.257700 -6.364304 3.694600
						CHANNELS 3 Xrotation Yrotation Zrotation
						JOINT LHoodieString2
						{
							OFFSET 0.000000 -9.643799 2.679100
							CHANNELS 3 Xrotation Yrotation Zrotation
							End Site
							{
								OFFSET 0.000000 10.009018 0.000000
							}
						}
					}
				}
				JOINT RHoodieString
				{
					OFFSET -5.250500 16.397697 3.089900
					CHANNELS 3 Xrotation Yrotation Zrotation
					JOINT RHoodieString1
					{
						OFFSET -0.257700 -6.364304 3.694600
						CHANNELS 3 Xrotation Yrotation Zrotation
						JOINT RHoodieString2
						{
							OFFSET 0.000000 -9.643799 2.679100
							CHANNELS 3 Xrotation Yrotation Zrotation
							End Site
							{
								OFFSET 0.000000 10.009018 0.000000
							}
						}
					}
				}
			}
			JOINT LBackpack_Strap
			{
				OFFSET 15.223200 -7.719803 -6.610900
				CHANNELS 3 Xrotation Yrotation Zrotation
				End Site
				{
					OFFSET 0.000000 16.040596 0.000000
				}
			}
			JOINT RBackpack_Strap
			{
				OFFSET -15.223000 -7.719803 -6.610900
				CHANNELS 3 Xrotation Yrotation Zrotation
				End Site
				{
					OFFSET 0.000000 16.040596 0.000000
				}
			}
		}
	}
	JOINT BoyFacialAnim_Joint
	{
		OFFSET 1.000000 -82.208099 -1.550900
		CHANNELS 3 Xrotation Yrotation Zrotation
		End Site
		{
			OFFSET 0.000000 30.012791 0.000000
		}
	}
}
MOTION
Frames: 4
Frame Time: 0.016667
-83.038239 69.735138 -5.782609 5.535032 -58.213340 3.071996 -0.000000 0.000002 -0.000000 -44.993379 -23.108868 18.520288 41.731424 -3.483586 -9.201353 1.579704 0.146923 -18.713557 0.000000 -0.000000 0.000000 0.000000 -0.000000 -0.000000 -0.000000 -0.000003 -0.000001 -52.330136 -0.489055 -12.203601 86.331207 6.644658 -7.081779 -16.943116 -4.621657 12.712315 0.000001 0.000001 0.000000 0.000001 0.000001 0.000000 -0.000000 -0.000000 0.000001 15.973345 1.291105 -4.597858 15.662363 2.194512 -5.768868 15.861041 2.321201 -5.742668 -14.884360 23.425665 6.721287 -15.964691 21.324450 2.083151 -0.000001 0.000000 -0.000001 -0.000001 0.000000 -0.000001 -0.000001 0.000000 -0.000001 -0.592727 -13.563742 6.823827 -37.598402 23.788784 -23.345655 0.137237 -73.842446 0.102678 21.507012 -12.727055 33.551819 -0.176230 -1.991295 10.659551 -0.979197 11.076303 -5.731062 -0.000004 -0.000000 -0.000000 13.247449 -0.979873 21.207942 -0.180148 0.297659 -20.577338 0.000001 0.000000 -0.000002 8.602425 -0.416356 9.612757 0.200404 0.617471 -19.373464 -0.000001 0.000005 -0.000003 6.158757 3.074133 -5.684670 0.025722 0.262718 -19.597358 -0.000002 0.000001 0.000003 -5.613867 7.660089 -3.352567 0.187022 0.237994 -36.060195 -0.000001 0.000004 0.000002 -0.000000 0.000001 0.000003 -2.118365 13.247539 13.753724 -38.399061 -0.958082 39.774193 151.512529 110.498104 -153.014406 -21.986365 0.700016 -2.641016 1.093341 1.408788 -13.987318 3.986649 -25.048817 0.080539 -0.000002 0.000001 0.000001 19.464653 11.168275 -4.447428 -0.110025 -0.329382 26.935956 -0.000004 0.000000 0.000002 4.244763 2.329692 4.090257 0.378210 -0.490154 35.790639 -0.000001 0.000001 0.000000 -7.005463 -10.749429 14.617050 0.115635 -0.151327 35.056001 -0.000001 0.000002 0.000004 -19.412747 -20.240296 14.888248 0.269429 -0.116293 45.744823 0.000000 0.000000 -0.000003 -0.000001 -0.000001 -0.000001 -0.000000 0.000000 0.000000 -0.000000 0.000000 0.000000 -0.000000 0.000000 0.000000 -0.000000 0.000000 0.000000 -0.000000 0.000000 0.000001 0.000002 0.000000 -0.000000 -0.000000 0.000000 0.000000 -0.000000 0.000000 0.000001 0.000002 0.000000 -0.000000 -0.000000 0.000001 -0.000001 -0.000000 0.000001 -0.000001 -0.000000 0.000002 -0.000000 
-84.071602 69.767601 -5.649714 4.066502 -58.562534 1.813079 0.000000 -0.000001 -0.000000 -43.521829 -22.756765 19.407274 42.612085 -4.225704 -9.475524 0.043321 0.401343 -18.684642 -0.000000 0.000001 -0.000000 -0.000000 0.000001 -0.000000 0.000000 0.000000 0.000002 -51.486891 -0.055374 -12.753418 82.868172 3.551635 -7.333988 -19.717131 -6.102331 10.804479 0.000000 0.000001 -0.000000 0.000000 0.000001 -0.000000 0.000000 -0.000002 -0.000000 15.902033 1.145762 -4.571944 15.476329 1.900086 -5.988028 15.663103 2.020908 -5.953940 -15.640626 24.355953 6.043397 -15.299786 22.041528 1.948354 0.000002 -0.000001 0.000002 0.000002 -0.000001 0.000002 0.000002 -0.000001 0.000002 -1.370444 -14.343334 3.032921 -38.279611 22.614247 -23.089914 0.142136 -75.187802 0.108043 21.180314 -12.561888 30.726344 -0.172640 -1.962141 10.669725 -0.991714 11.049020 -5.744202 -0.000001 -0.000001 -0.000001 13.246159 -0.979997 21.241415 -0.180226 0.297663 -20.543860 0.000001 -0.000002 -0.000002 8.602997 -0.416600 9.646226 0.200007 0.617177 -19.339959 -0.000001 0.000009 -0.000000 6.160629 3.072671 -5.651297 0.025770 0.262533 -19.563880 0.000000 0.000002 -0.000002 -5.609800 7.658645 -3.319404 0.186936 0.238074 -36.026693 0.000000 0.000002 0.000000 0.000002 0.000004 0.000001 -2.145712 13.116405 13.287851 -38.908511 -2.796935 41.271155 150.551439 108.832699 -151.840843 -18.983459 0.814732 -0.184480 1.100661 1.316001 -14.020256 4.097968 -25.391042 -0.046747 -0.000003 0.000000 0.000001 19.480336 11.186124 -4.051263 -0.109618 -0.329630 27.333167 0.000001 0.000003 0.000006 4.235014 2.325050 4.487361 0.380042 -0.491326 36.187811 -0.000000 0.000001 -0.000003 -7.026269 -10.770451 15.013172 0.116064 -0.154269 35.453173 -0.000001 -0.000003 0.000003 -19.446512 -20.272575 15.280820 0.270982 -0.117546 46.141934 -0.000003 0.000000 -0.000001 0.000002 -0.000000 -0.000000 -0.000000 0.000001 -0.000000 -0.000000 0.000001 -0.000000 -0.000000 0.000001 -0.000000 -0.000000 0.000001 -0.000000 -0.000000 0.000001 -0.000001 0.000003 -0.000001 -0.000002 -0.000000 0.000001 -0.000000 -0.000000 0.000001 -0.000001 0.000003 -0.000001 -0.000002 0.000002 -0.000000 0.000001 0.000002 -0.000000 0.000001 0.000000 -0.000001 -0.000000 
-85.059364 69.813820 -5.531119 2.642094 -58.801358 0.658305 -0.000000 -0.000002 -0.000000 -42.113321 -22.193137 20.207666 43.201705 -5.040435 -9.702939 -1.274441 0.612282 -18.584432 -0.000000 0.000001 -0.000000 -0.000000 0.000001 -0.000000 0.000000 0.000001 0.000001 -50.300925 0.210895 -13.420649 78.575753 1.043331 -7.671494 -21.120004 -7.155234 10.473454 -0.000000 -0.000001 0.000000 -0.000000 -0.000001 0.000000 -0.000001 0.000002 -0.000001 15.825902 0.996497 -4.535608 15.281059 1.631123 -6.174519 15.452408 1.743126 -6.133699 -16.471742 25.128981 5.368880 -14.460306 22.658898 1.648731 0.000003 0.000000 0.000000 0.000003 0.000000 0.000000 0.000003 0.000000 0.000000 -2.134515 -14.889208 -0.321571 -38.090831 21.313440 -23.421120 0.143885 -75.859653 0.109933 21.642686 -12.429997 28.334584 -0.171276 -1.951958 10.673354 -0.995515 11.040119 -5.747500 -0.000002 -0.000001 -0.000001 13.244947 -0.980212 21.252192 -0.180228 0.297748 -20.533244 -0.000001 -0.000002 -0.000004 8.603643 -0.416692 9.656909 0.199605 0.616966 -19.329306 -0.000000 0.000003 -0.000001 6.162588 3.070914 -5.640794 0.025949 0.262514 -19.553196 -0.000003 0.000003 0.000000 -5.608260 7.656885 -3.309135 0.186881 0.238160 -36.015973 -0.000000 0.000004 0.000000 0.000000 0.000004 0.000001 -2.213428 12.977063 12.820907 -38.520300 -3.822272 41.682295 149.720260 107.278086 -150.818309 -17.231124 2.319443 1.639094 1.099600 1.332542 -14.014466 4.156995 -25.569867 -0.112258 -0.000004 -0.000001 0.000000 19.490553 11.198353 -3.844281 -0.109421 -0.329754 27.540776 -0.000001 0.000002 0.000004 4.228745 2.322527 4.694893 0.381000 -0.491853 36.395387 0.000001 -0.000000 -0.000002 -7.040153 -10.784497 15.220090 0.116263 -0.155899 35.660800 -0.000001 -0.000000 0.000002 -19.469244 -20.294748 15.485340 0.271740 -0.118161 46.349537 0.000001 0.000001 -0.000001 0.000002 -0.000000 -0.000001 -0.000003 0.000000 0.000003 -0.000003 0.000000 0.000003 -0.000003 0.000000 0.000003 -0.000003 0.000000 0.000003 -0.000003 0.000000 0.000002 -0.000001 -0.000002 0.000002 -0.000003 0.000000 0.000003 -0.000003 0.000000 0.000002 -0.000001 -0.000002 0.000002 -0.000001 -0.000001 -0.000000 -0.000001 -0.000001 -0.000000 -0.000000 -0.000002 -0.000000 
-86.012054 69.782661 -5.429416 1.288858 -58.942251 -0.357245 0.000000 -0.000001 -0.000000 -40.964954 -21.507907 20.915766 43.846884 -6.020672 -9.951084 -2.541075 0.821466 -18.403011 0.000000 -0.000000 0.000000 0.000000 -0.000000 -0.000000 -0.000001 0.000001 -0.000002 -48.563598 0.254873 -14.325601 72.849896 0.474446 -7.985020 -19.237212 -6.750104 12.701707 -0.000000 0.000000 -0.000000 -0.000000 0.000000 -0.000000 -0.000000 -0.000003 0.000000 15.744862 0.835488 -4.508804 15.077535 1.383976 -6.329466 15.230644 1.483824 -6.284087 -17.484617 25.776253 4.725523 -13.493821 23.182101 1.276606 0.000000 0.000001 -0.000000 0.000000 0.000001 -0.000000 0.000000 0.000001 -0.000000 -2.761779 -14.973148 -2.599939 -36.570643 20.101426 -24.497431 0.136243 -75.533559 0.102061 22.628516 -12.613186 26.528086 -0.175612 -1.983284 10.662206 -0.950361 11.151373 -5.698976 -0.000002 0.000001 -0.000000 13.243768 -0.980704 21.119406 -0.180069 0.297962 -20.665895 -0.000000 -0.000001 -0.000005 8.602295 -0.415799 9.524147 0.199709 0.617414 -19.462038 -0.000001 -0.000004 -0.000004 6.163242 3.070134 -5.773599 0.026168 0.263584 -19.685918 0.000000 -0.000004 -0.000003 -5.603430 7.655385 -3.442076 0.187328 0.238823 -36.148745 0.000001 -0.000000 -0.000004 0.000001 0.000000 0.000002 -2.248354 12.848358 12.353132 -38.156264 -4.801578 41.733228 148.594208 105.662637 -149.509426 -15.782209 4.369588 3.355033 1.092518 1.427161 -13.981080 4.180324 -25.639284 -0.137688 -0.000001 -0.000001 -0.000001 19.497134 11.206770 -3.763928 -0.109356 -0.329816 27.621563 -0.000002 -0.000000 -0.000000 4.225242 2.321624 4.775587 0.381436 -0.492059 36.476144 -0.000001 0.000000 -0.000000 -7.049302 -10.793729 15.300486 0.116330 -0.156710 35.741526 0.000000 -0.000000 0.000002 -19.484399 -20.310030 15.564195 0.272086 -0.118434 46.430294 0.000003 -0.000001 0.000000 -0.000001 -0.000001 0.000001 -0.000003 0.000000 0.000003 -0.000003 0.000000 0.000003 -0.000003 0.000000 0.000003 -0.000003 0.000000 0.000003 -0.000003 0.000000 0.000002 -0.000002 0.000000 -0.000001 -0.000003 0.000000 0.000003 -0.000003 0.000000 0.000002 -0.000002 0.000000 -0.000001 0.000001 -0.000001 -0.000003 0.000001 -0.000001 -0.000003 0.000000 -0.000001 -0.000000 
